<?xml version="1.0" standalone="no"?>
<!DOCTYPE svg PUBLIC "-//W3C//DTD SVG 20010904//EN"
 "http://www.w3.org/TR/2001/REC-SVG-20010904/DTD/svg10.dtd">
<svg version="1.0" xmlns="http://www.w3.org/2000/svg"
 width="416.000000pt" height="416.000000pt" viewBox="0 0 416.000000 416.000000"
 preserveAspectRatio="xMidYMid meet">

<g transform="translate(0.000000,416.000000) scale(0.100000,-0.100000)"
fill="#000000" stroke="none">
<path d="M1857 2773 c-4 -3 -7 -309 -7 -680 0 -592 2 -673 15 -673 13 0 15 82
15 680 0 374 -4 680 -8 680 -5 0 -12 -3 -15 -7z"/>
<path d="M1910 2100 c0 -491 2 -560 15 -560 13 0 15 69 15 560 0 491 -2 560
-15 560 -13 0 -15 -69 -15 -560z"/>
<path d="M1800 2109 c0 -357 3 -538 10 -534 14 9 14 1075 0 1075 -7 0 -10
-187 -10 -541z"/>
<path d="M910 2101 c0 -334 3 -511 10 -511 7 0 10 175 10 504 0 326 -4 507
-10 511 -7 4 -10 -167 -10 -504z"/>
<path d="M3280 2100 c0 -333 3 -510 10 -510 7 0 10 177 10 510 0 333 -3 510
-10 510 -7 0 -10 -177 -10 -510z"/>
<path d="M1975 2549 c-10 -27 -1 -924 10 -924 14 0 19 915 5 929 -6 6 -11 4
-15 -5z"/>
<path d="M2805 2549 c-10 -26 -1 -899 10 -902 14 -3 19 893 5 907 -6 6 -11 4
-15 -5z"/>
<path d="M965 2478 c-3 -7 -4 -181 -3 -387 2 -289 6 -375 16 -379 16 -5 18
763 2 773 -6 3 -12 0 -15 -7z"/>
<path d="M850 2110 c0 -233 4 -360 10 -360 6 0 10 127 10 360 0 233 -4 360
-10 360 -6 0 -10 -127 -10 -360z"/>
<path d="M3220 2110 c0 -233 4 -360 10 -360 6 0 10 127 10 360 0 233 -4 360
-10 360 -6 0 -10 -127 -10 -360z"/>
<path d="M2865 2429 c-10 -26 -1 -664 10 -664 14 0 19 655 5 669 -6 6 -11 4
-15 -5z"/>
<path d="M1380 2101 c0 -209 4 -332 10 -336 7 -4 10 108 10 329 0 217 -4 336
-10 336 -6 0 -10 -116 -10 -329z"/>
<path d="M2330 2100 c0 -213 4 -330 10 -330 6 0 10 117 10 330 0 213 -4 330
-10 330 -6 0 -10 -117 -10 -330z"/>
<path d="M2745 2407 c-3 -7 -4 -145 -3 -306 2 -225 6 -295 16 -299 9 -3 12 63
12 307 0 207 -3 311 -10 311 -6 0 -13 -6 -15 -13z"/>
<path d="M1020 2090 c0 -251 2 -290 15 -290 13 0 15 39 15 290 0 251 -2 290
-15 290 -13 0 -15 -39 -15 -290z"/>
<path d="M2920 2090 c0 -163 3 -241 10 -238 7 2 11 84 11 238 0 154 -4 236
-11 238 -7 3 -10 -75 -10 -238z"/>
<path d="M1440 2101 c0 -129 4 -212 10 -216 7 -4 10 68 10 209 0 137 -4 216
-10 216 -6 0 -10 -76 -10 -209z"/>
<path d="M2390 2094 c0 -141 3 -213 10 -209 6 4 10 87 10 216 0 133 -4 209
-10 209 -6 0 -10 -79 -10 -216z"/>
<path d="M3340 2094 c0 -141 3 -213 10 -209 6 4 10 87 10 216 0 133 -4 209
-10 209 -6 0 -10 -79 -10 -216z"/>
<path d="M1087 2294 c-4 -4 -7 -97 -7 -206 0 -155 3 -199 13 -196 9 4 13 54
15 198 2 177 -2 222 -21 204z"/>
<path d="M1267 2294 c-4 -4 -7 -97 -7 -206 0 -155 3 -199 13 -196 9 4 13 54
15 198 2 177 -2 222 -21 204z"/>
<path d="M1320 2110 c0 -130 3 -191 11 -188 15 5 15 371 0 376 -8 3 -11 -50
-11 -188z"/>
<path d="M1560 2096 c0 -131 4 -206 10 -206 6 0 10 73 10 199 0 123 -4 202
-10 206 -7 4 -10 -65 -10 -199z"/>
<path d="M1740 2096 c0 -131 4 -206 10 -206 6 0 10 73 10 199 0 123 -4 202
-10 206 -7 4 -10 -65 -10 -199z"/>
<path d="M2037 2293 c-11 -11 -8 -403 3 -403 6 0 10 75 10 205 0 113 -1 205
-3 205 -2 0 -7 -3 -10 -7z"/>
<path d="M2270 2110 c0 -120 4 -190 10 -190 6 0 10 70 10 190 0 120 -4 190
-10 190 -6 0 -10 -70 -10 -190z"/>
<path d="M2690 2096 c0 -131 4 -206 10 -206 6 0 10 73 10 199 0 123 -4 202
-10 206 -7 4 -10 -65 -10 -199z"/>
<path d="M2987 2293 c-11 -11 -8 -403 3 -403 6 0 10 75 10 205 0 113 -1 205
-3 205 -2 0 -7 -3 -10 -7z"/>
<path d="M3167 2293 c-11 -11 -8 -403 3 -403 6 0 10 75 10 205 0 113 -1 205
-3 205 -2 0 -7 -3 -10 -7z"/>
<path d="M790 2090 c0 -127 4 -200 10 -200 6 0 10 73 10 200 0 127 -4 200 -10
200 -6 0 -10 -73 -10 -200z"/>
<path d="M1500 2090 c0 -73 4 -120 10 -120 6 0 10 47 10 120 0 73 -4 120 -10
120 -6 0 -10 -47 -10 -120z"/>
<path d="M2450 2090 c0 -73 4 -120 10 -120 6 0 10 47 10 120 0 73 -4 120 -10
120 -6 0 -10 -47 -10 -120z"/>
<path d="M3400 2090 c0 -73 4 -120 10 -120 6 0 10 47 10 120 0 73 -4 120 -10
120 -6 0 -10 -47 -10 -120z"/>
<path d="M1140 2085 c0 -70 4 -115 10 -115 6 0 10 45 10 115 0 70 -4 115 -10
115 -6 0 -10 -45 -10 -115z"/>
<path d="M1615 2188 c-11 -29 0 -211 13 -216 9 -3 12 24 12 112 0 73 -4 116
-10 116 -6 0 -13 -6 -15 -12z"/>
<path d="M2090 2085 c0 -70 4 -115 10 -115 6 0 10 45 10 115 0 70 -4 115 -10
115 -6 0 -10 -45 -10 -115z"/>
<path d="M2562 2088 c2 -67 7 -113 13 -113 6 0 11 46 13 113 2 96 0 112 -13
112 -13 0 -15 -16 -13 -112z"/>
<path d="M3040 2085 c0 -70 4 -115 10 -115 6 0 10 45 10 115 0 70 -4 115 -10
115 -6 0 -10 -45 -10 -115z"/>
<path d="M730 2090 c0 -53 4 -90 10 -90 6 0 10 37 10 90 0 53 -4 90 -10 90 -6
0 -10 -37 -10 -90z"/>
<path d="M1202 2095 c2 -48 7 -85 13 -85 6 0 11 37 13 85 2 72 0 85 -13 85
-13 0 -15 -13 -13 -85z"/>
<path d="M1680 2090 c0 -53 4 -90 10 -90 6 0 10 37 10 90 0 53 -4 90 -10 90
-6 0 -10 -37 -10 -90z"/>
<path d="M2152 2096 c4 -111 23 -115 23 -4 0 57 -4 83 -13 86 -10 3 -12 -15
-10 -82z"/>
<path d="M2630 2089 c0 -57 4 -88 10 -84 6 3 10 44 10 91 0 49 -4 84 -10 84
-6 0 -10 -37 -10 -91z"/>
<path d="M3100 2096 c0 -47 5 -88 10 -91 6 -4 10 27 10 84 0 54 -4 91 -10 91
-6 0 -10 -35 -10 -84z"/>
<path d="M3510 2090 c0 -56 3 -70 15 -70 12 0 15 14 15 70 0 56 -3 70 -15 70
-12 0 -15 -14 -15 -70z"/>
<path d="M2212 2096 c2 -15 8 -26 13 -26 15 0 12 43 -3 48 -10 3 -13 -4 -10
-22z"/>
<path d="M2510 2089 c0 -17 4 -28 10 -24 6 3 10 17 10 31 0 13 -4 24 -10 24
-5 0 -10 -14 -10 -31z"/>
<path d="M3454 2105 c-8 -20 3 -48 16 -40 13 8 13 55 0 55 -6 0 -13 -7 -16
-15z"/>
</g>
</svg>
